<svg width="386" height="386" viewBox="0 0 386 386" fill="none" xmlns="http://www.w3.org/2000/svg">
<path d="M374.5 323.6L243.9 193L374.5 62.4C388.6 48.3 388.6 25.6 374.5 11.5C360.4 -2.6 337.7 -2.6 323.6 11.5L193 142.1L62.4 11.5C48.3 -2.6 25.6 -2.6 11.5 11.5C-2.60001 25.6 -2.60001 48.3 11.5 62.4L142.1 193L11.5 323.6C-2.60001 337.7 -2.60001 360.4 11.5 374.5C25.6 388.6 48.3 388.6 62.4 374.5L193 243.9L323.6 374.5C337.7 388.6 360.4 388.6 374.5 374.5C388.5 360.4 388.5 337.6 374.5 323.6Z" fill="white"/>
</svg>
