<?xml version="1.0" encoding="utf-8"?>
<!-- Generator: Adobe Illustrator 27.5.0, SVG Export Plug-In . SVG Version: 6.00 Build 0)  -->
<svg version="1.1" id="Camada_1" xmlns="http://www.w3.org/2000/svg" xmlns:xlink="http://www.w3.org/1999/xlink" x="0px" y="0px"
	 viewBox="0 0 700 400" style="enable-background:new 0 0 700 400;" xml:space="preserve">
<style type="text/css">
	.st0{fill-rule:evenodd;clip-rule:evenodd;fill:#009FD7;}
	.st1{fill-rule:evenodd;clip-rule:evenodd;fill:#00ADEE;}
	.st2{fill-rule:evenodd;clip-rule:evenodd;fill:#21B9EC;}
	.st3{fill-rule:evenodd;clip-rule:evenodd;fill:#44C7F4;}
</style>
<g>
	<path class="st0" d="M700.98,227.59H-1.35v-42.62c19.14,11.07,44.83,10.18,56.73-4.21c13.6-16.44,35.93-13.42,50.44,0.86
		c5.19,5.11,31.21,15.34,41.13,5.2c11.3-11.55,37.3-21.46,52.77-6.12c42.96,42.57,80.27-44.17,111.04-0.95
		c12.51,17.57,37.11,6.71,49.93-3.06c42.05-32.04,53.62,10.51,81.22,10.51c36.23-2.2,33.55-20.41,52.58-21.56
		c10.67-0.64,25.19,21.56,61.5,21.56c32.46,0,22.1-19.23,48.5-21.23c25.15-1.91,50.13,39.5,82.08,15.92
		c3.83-2.83,8.85-5.58,14.4-7.63V227.59z"/>
	<path class="st1" d="M-1.35,250.88h702.33v-46.1c-16.87,6.33-35.45,2.86-45.05-11.39c-13.6-20.18-35.93-16.47-50.44,1.05
		c-5.19,6.27-31.21,18.83-41.13,6.39c-11.3-14.18-37.3-26.34-52.77-7.52c-42.96,52.27-80.27-54.24-111.04-1.17
		c-12.51,21.57-37.11,8.23-49.93-3.76c-42.05-39.34-53.62,12.9-81.22,12.9c-36.23-2.7-33.55-25.07-52.58-26.47
		c-10.67-0.79-25.19,26.47-61.5,26.47c-32.46,0-22.1-23.61-48.5-26.06c-25.15-2.34-50.13,48.5-82.08,19.55
		c-6.41-5.81-16.12-11.36-26.08-13.02V250.88z"/>
	<path class="st2" d="M-1.35,245h702.33v-48.76c-13.26-9.54-17.42-13.75-40.24,3.19c-19.59,14.54-49.65,15.02-62.87-0.56
		c-13.74-16.19-36.3-13.22-50.97,0.85c-5.25,5.03-31.54,15.11-41.56,5.13c-11.42-11.38-37.69-21.13-53.32-6.03
		c-43.41,41.93-81.11-43.51-112.2-0.93c-12.64,17.3-37.5,6.6-50.46-3.01c-42.49-31.56-54.18,10.35-82.07,10.35
		c-36.61-2.17-33.9-20.11-53.13-21.24c-10.78-0.63-25.46,21.24-62.15,21.24c-32.8,0-22.34-18.94-49.01-20.91
		c-14.4-1.06-28.75,11.57-44.35,18.49V245z"/>
	<path class="st3" d="M700.98,263.93H-1.35v-38.97c19.2,10.39,45.33,9.7,57.36-3.48c13.6-14.9,35.93-12.17,50.44,0.78
		c5.19,4.63,31.21,13.91,41.13,4.72c11.3-10.47,37.3-19.45,52.77-5.55c42.96,38.6,80.27-40.05,111.04-0.86
		c12.51,15.93,37.11,6.08,49.93-2.78c42.05-29.05,53.62,9.53,81.22,9.53c36.23-1.99,33.55-18.51,52.58-19.55
		c10.67-0.58,25.19,19.55,61.5,19.55c32.46,0,22.1-17.43,48.5-19.25c25.15-1.73,50.13,35.82,82.08,14.44
		c3.69-2.47,8.47-4.87,13.77-6.71V263.93z"/>
</g>
</svg>
